<svg width="81" height="50" viewBox="0 0 81 50" fill="none" xmlns="http://www.w3.org/2000/svg">
<path d="M66.0597 17.0722L66.1481 17.019C66.5014 16.8311 66.9779 16.7155 67.4928 16.7155C68.0518 16.7155 68.5654 16.8517 68.9255 17.0688L68.9261 17.0692C69.0978 17.1724 69.2149 17.2844 69.2862 17.3887C69.3558 17.4906 69.3802 17.5817 69.3802 17.6594C69.3802 17.7371 69.3558 17.8282 69.2862 17.93C69.2149 18.0344 69.0978 18.1464 68.9261 18.2496L68.9258 18.2497L42.0086 34.4466C41.6277 34.6757 41.0868 34.8186 40.4995 34.8186C39.9123 34.8186 39.3713 34.6757 38.9905 34.4466L12.0742 18.2472C12.074 18.2471 12.0739 18.247 12.0737 18.2469C11.9037 18.144 11.7878 18.0325 11.7172 17.9288C11.6482 17.8275 11.624 17.7368 11.624 17.6594C11.624 17.582 11.6482 17.4913 11.7172 17.3899C11.7878 17.2862 11.9038 17.1747 12.0739 17.0718C12.4339 16.8548 12.9474 16.7186 13.5063 16.7186C14.0653 16.7186 14.5789 16.8549 14.939 17.0719L14.9394 17.0722L40.2417 32.2972L40.4995 32.4523L40.7573 32.2972L66.0597 17.0722Z" fill="#FDAE38" stroke="black"/>
</svg>
