<svg width="46" height="46" viewBox="0 0 46 46" fill="none" xmlns="http://www.w3.org/2000/svg">
<circle cx="23" cy="23" r="22.5" stroke="white"/>
<path d="M23 32.0001C21.7369 30.9227 20.5662 29.7416 19.5 28.4691C17.9 26.5581 16 23.7121 16 21.0001C15.9993 19.6151 16.4095 18.2609 17.1787 17.1091C17.9479 15.9573 19.0415 15.0596 20.3211 14.5295C21.6007 13.9994 23.0087 13.8609 24.3671 14.1314C25.7255 14.4019 26.9731 15.0693 27.952 16.0491C28.6038 16.698 29.1203 17.4696 29.4719 18.3195C29.8234 19.1693 30.0029 20.0804 30 21.0001C30 23.7121 28.1 26.5581 26.5 28.4691C25.4338 29.7416 24.2631 30.9227 23 32.0001ZM23 18.0001C22.2044 18.0001 21.4413 18.3162 20.8787 18.8788C20.3161 19.4414 20 20.2044 20 21.0001C20 21.7957 20.3161 22.5588 20.8787 23.1214C21.4413 23.684 22.2044 24.0001 23 24.0001C23.7957 24.0001 24.5587 23.684 25.1213 23.1214C25.6839 22.5588 26 21.7957 26 21.0001C26 20.2044 25.6839 19.4414 25.1213 18.8788C24.5587 18.3162 23.7957 18.0001 23 18.0001Z" fill="white"/>
</svg>
