<svg width="46" height="46" viewBox="0 0 46 46" fill="none" xmlns="http://www.w3.org/2000/svg">
<circle cx="23" cy="23" r="22.5" stroke="white"/>
<path d="M29.997 31C21.466 31.012 14.991 24.46 15 16.003C15 15.45 15.448 15 16 15H18.64C19.135 15 19.556 15.364 19.629 15.854C19.8031 17.0291 20.1449 18.173 20.644 19.251L20.747 19.473C20.8162 19.6224 20.8311 19.7912 20.7891 19.9504C20.7471 20.1096 20.6509 20.2492 20.517 20.345C19.699 20.929 19.387 22.104 20.024 23.02C20.826 24.1733 21.827 25.1746 22.98 25.977C23.897 26.613 25.072 26.301 25.655 25.484C25.7507 25.3497 25.8904 25.2531 26.0498 25.211C26.2092 25.1688 26.3784 25.1836 26.528 25.253L26.749 25.355C27.827 25.855 28.971 26.197 30.146 26.371C30.636 26.444 31 26.865 31 27.361V30C31 30.1314 30.9741 30.2615 30.9238 30.3829C30.8735 30.5043 30.7997 30.6146 30.7068 30.7075C30.6138 30.8003 30.5034 30.874 30.382 30.9242C30.2606 30.9744 30.1304 31.0001 29.999 31H29.997Z" fill="white"/>
</svg>
