<svg width="46" height="46" viewBox="0 0 46 46" fill="none" xmlns="http://www.w3.org/2000/svg">
<circle cx="23" cy="23" r="22.5" stroke="white"/>
<path d="M31 15H15C13.9 15 13.01 15.9 13.01 17L13 29C13 30.1 13.9 31 15 31H31C32.1 31 33 30.1 33 29V17C33 15.9 32.1 15 31 15ZM30.6 19.25L23.53 23.67C23.21 23.87 22.79 23.87 22.47 23.67L15.4 19.25C15.2997 19.1937 15.2119 19.1177 15.1419 19.0265C15.0719 18.9352 15.0211 18.8308 14.9926 18.7194C14.9641 18.608 14.9585 18.4919 14.9762 18.3783C14.9938 18.2647 15.0343 18.1558 15.0953 18.0583C15.1562 17.9608 15.2363 17.8767 15.3307 17.811C15.4251 17.7453 15.5319 17.6995 15.6445 17.6763C15.7571 17.6531 15.8733 17.653 15.986 17.6759C16.0986 17.6989 16.2055 17.7445 16.3 17.81L23 22L29.7 17.81C29.7945 17.7445 29.9014 17.6989 30.014 17.6759C30.1267 17.653 30.2429 17.6531 30.3555 17.6763C30.4681 17.6995 30.5749 17.7453 30.6693 17.811C30.7637 17.8767 30.8438 17.9608 30.9047 18.0583C30.9657 18.1558 31.0062 18.2647 31.0238 18.3783C31.0415 18.4919 31.0359 18.608 31.0074 18.7194C30.9789 18.8308 30.9281 18.9352 30.8581 19.0265C30.7881 19.1177 30.7003 19.1937 30.6 19.25Z" fill="white"/>
</svg>
