<svg width="81" height="81" viewBox="0 0 81 81" fill="none" xmlns="http://www.w3.org/2000/svg">
<path d="M65.8024 26.9629L40.5 51.6274L15.1976 26.9629C14.7456 26.5213 14.1387 26.2741 13.5068 26.2741C12.8748 26.2741 12.2679 26.5213 11.8159 26.9629C11.597 27.1773 11.4231 27.4333 11.3044 27.7158C11.1857 27.9984 11.1245 28.3017 11.1245 28.6082C11.1245 28.9146 11.1857 29.218 11.3044 29.5005C11.4231 29.783 11.597 30.039 11.8159 30.2535L38.7332 56.4975C39.2059 56.9583 39.8399 57.2161 40.5 57.2161C41.1601 57.2161 41.7941 56.9583 42.2668 56.4975L69.1841 30.2586C69.4046 30.0439 69.5798 29.7873 69.6994 29.5039C69.819 29.2204 69.8807 28.9159 69.8807 28.6082C69.8807 28.3005 69.819 27.996 69.6994 27.7125C69.5798 27.4291 69.4046 27.1724 69.1841 26.9578C68.7321 26.5162 68.1252 26.269 67.4933 26.269C66.8613 26.269 66.2545 26.5162 65.8024 26.9578V26.9629Z" fill="#FDAE38"/>
</svg>
