<svg width="56" height="43" viewBox="0 0 56 43" fill="none" xmlns="http://www.w3.org/2000/svg">
<path fill-rule="evenodd" clip-rule="evenodd" d="M37.504 0H29.664C26.848 0 24.592 0.8 22.896 2.4C21.168 3.968 20.304 6.064 20.304 8.688C20.304 11.28 21.088 13.52 22.656 15.408C24.224 17.264 26.144 18.192 28.416 18.192H28.464C27.376 19.344 26.144 20.688 24.768 22.224C19.232 28.336 15.68 32.176 14.112 33.744C12.544 35.312 11.168 36.592 9.984 37.584C8.768 38.608 7.696 39.36 6.768 39.84C4.88 40.864 3.008 41.376 1.152 41.376C0.768002 41.376 0.384001 41.344 0 41.28V41.76C1.344 42.112 2.544 42.288 3.6 42.288C4.624 42.288 5.536 42.224 6.336 42.096C7.136 41.968 8 41.712 8.928 41.328C9.824 40.976 10.672 40.56 11.472 40.08C12.272 39.6 13.072 39.008 13.872 38.304C15.344 37.12 16.688 35.84 17.904 34.464C19.088 33.088 21.392 30.512 24.816 26.736C28.24 22.928 30.512 20.4 31.632 19.152C32.752 17.904 33.616 17.248 34.224 17.184V16.704C32.368 16.704 31.136 16.672 30.528 16.608C29.888 16.512 29.216 16.368 28.512 16.176C27.808 15.952 27.216 15.664 26.736 15.312C24.848 14.096 23.904 12.08 23.904 9.264C23.904 6.928 24.432 5.056 25.488 3.648C26.512 2.24 27.968 1.52 29.856 1.488H35.808V30.096C35.808 30.896 35.52 31.6 34.944 32.208C34.336 32.816 33.6 33.12 32.736 33.12H32.16L32.112 33.6H37.504V0Z" fill="#FFD600"/>
<path fill-rule="evenodd" clip-rule="evenodd" d="M37.504 33.6H44.096C47.616 33.6 50.352 32.784 52.304 31.152C54.288 29.52 55.28 27.424 55.28 24.864C55.28 22.272 54.544 20.128 53.072 18.432C51.6 16.736 49.6 15.696 47.072 15.312C48.544 14.896 49.792 14.064 50.816 12.816C51.84 11.536 52.352 9.936 52.352 8.016C52.352 5.584 51.44 3.648 49.616 2.208C47.792 0.736 45.232 0 41.936 0H37.504V33.6ZM43.904 31.824H39.2V1.536H41.744C44.016 1.536 45.744 2.128 46.928 3.312C48.144 4.496 48.752 6.176 48.752 8.352C48.752 9.216 48.656 10 48.464 10.704C47.6 13.84 45.056 15.408 40.832 15.408V15.84H40.88C44.592 15.84 47.376 16.608 49.232 18.144C49.936 18.752 50.512 19.584 50.96 20.64C51.44 21.664 51.68 22.864 51.68 24.24C51.68 26.672 51.008 28.544 49.664 29.856C48.32 31.168 46.432 31.824 44 31.824H43.904Z" fill="#F5F5F5"/>
</svg>
