<svg width="389" height="40" viewBox="0 0 389 40" fill="none" xmlns="http://www.w3.org/2000/svg">
<path d="M0.8 2.32C3.89333 2.10666 6.62667 2 9 2C15.5867 2 18.88 4.2 18.88 8.6C18.88 10.4667 18.4267 12.1333 17.52 13.6C16.6133 15.0667 15.0533 16.04 12.84 16.52L20.84 30H17.12L9.28 16.76H4.12V30H0.8V2.32ZM9 2.4C7.45333 2.4 5.82667 2.49333 4.12 2.68V16.36H10.04C13.8 16.2 15.68 13.64 15.68 8.68C15.68 6.65333 15.12 5.10667 14 4.04C12.88 2.94666 11.2133 2.4 9 2.4ZM32.7128 30.16C29.9128 30.16 27.6328 29.36 25.8728 27.76C24.1128 26.16 23.2328 23.6933 23.2328 20.36C23.2328 17.0267 24.1395 14.44 25.9528 12.6C27.7928 10.76 30.1128 9.84 32.9128 9.84C35.7395 9.84 38.0328 10.64 39.7928 12.24C41.5528 13.84 42.4328 16.3067 42.4328 19.64C42.4328 22.9733 41.5128 25.56 39.6728 27.4C37.8595 29.24 35.5395 30.16 32.7128 30.16ZM32.9928 10.16C30.9661 10.16 29.2861 11.0667 27.9528 12.88C26.6195 14.6667 25.9528 17.1733 25.9528 20.4C25.9528 23.6 26.5661 25.9733 27.7928 27.52C29.0195 29.0667 30.6461 29.84 32.6728 29.84C34.6995 29.84 36.3795 28.9467 37.7128 27.16C39.0461 25.3467 39.7128 22.84 39.7128 19.64C39.7128 16.4133 39.0995 14.0267 37.8728 12.48C36.6461 10.9333 35.0195 10.16 32.9928 10.16ZM40.8344 39.24L40.9544 38.92C42.2344 39.4267 43.4877 39.68 44.7144 39.68C45.9677 39.68 46.781 39.2933 47.1544 38.52C47.5544 37.7467 47.7544 36.4933 47.7544 34.76V10H50.5544V34.72C50.5544 36.8267 50.1277 38.2267 49.2744 38.92C48.421 39.64 47.1277 40 45.3944 40C43.6877 40 42.1677 39.7467 40.8344 39.24ZM47.9544 5.52C47.6344 5.2 47.4744 4.8 47.4744 4.32C47.4744 3.84 47.6344 3.44 47.9544 3.12C48.2744 2.77333 48.6744 2.6 49.1544 2.6C49.6344 2.6 50.0344 2.77333 50.3544 3.12C50.701 3.44 50.8744 3.84 50.8744 4.32C50.8744 4.8 50.701 5.2 50.3544 5.52C50.0344 5.84 49.6344 6 49.1544 6C48.6744 6 48.2744 5.84 47.9544 5.52ZM53.8922 20.72C53.8922 17.2533 54.7322 14.5733 56.4122 12.68C58.0922 10.7867 60.6122 9.84 63.9722 9.84C66.4522 9.84 68.9722 10.28 71.5322 11.16V30.48C71.5055 36.8267 68.7322 40 63.2122 40C60.1722 40 57.5722 39.0133 55.4122 37.04L55.6922 36.8C57.9855 38.72 60.4922 39.68 63.2122 39.68C66.8922 39.68 68.7322 36.6133 68.7322 30.48V26.52C68.2255 27.4533 67.3855 28.28 66.2122 29C65.0389 29.72 63.6522 30.08 62.0522 30.08C56.6122 29.9467 53.8922 26.8267 53.8922 20.72ZM62.0922 29.76C63.8789 29.76 65.4122 29.28 66.6922 28.32C67.9722 27.36 68.6522 26.4133 68.7322 25.48V11.36C66.8122 10.56 65.1855 10.16 63.8522 10.16C61.4789 10.16 59.6922 11.0933 58.4922 12.96C57.2922 14.8 56.6922 17.3867 56.6922 20.72C56.6922 26.7467 58.4922 29.76 62.0922 29.76ZM91.0419 30C89.2285 30 87.9885 29.6533 87.3219 28.96C86.7085 28.3733 86.4019 27.8667 86.4019 27.44V26.6C85.0952 28.9733 83.0019 30.16 80.1219 30.16C76.7619 30.16 74.8552 28.64 74.4019 25.6C74.3485 25.28 74.3219 24.96 74.3219 24.64C74.3219 24.2933 74.3752 23.92 74.4819 23.52C74.5885 23.12 74.8952 22.68 75.4019 22.2C76.4152 21.24 78.6419 20.6533 82.0819 20.44C82.9352 20.36 83.7219 20.32 84.4419 20.32C85.1619 20.32 85.8152 20.3467 86.4019 20.4V13.76C86.3485 13.7333 86.3485 13.6133 86.4019 13.4C86.4552 13.16 86.4019 12.8667 86.2419 12.52C86.1085 12.1467 85.9219 11.7867 85.6819 11.44C85.4419 11.0933 85.0152 10.8 84.4019 10.56C83.7885 10.2933 82.9885 10.16 82.0019 10.16C81.0152 10.16 79.8552 10.3467 78.5219 10.72C77.2152 11.0667 76.2552 11.4133 75.6419 11.76L75.4819 11.48C77.8552 10.3867 80.2685 9.84 82.7219 9.84C85.4685 9.84 87.2819 10.3333 88.1619 11.32C88.8552 12.0933 89.2019 12.9067 89.2019 13.76V27.16C89.2019 27.9333 89.3485 28.5333 89.6419 28.96C89.9619 29.36 90.2819 29.5733 90.6019 29.6L91.0419 29.68H92.2819V30H91.0419ZM80.7619 29.84C82.1752 29.84 83.4419 29.36 84.5619 28.4C85.7085 27.4133 86.3219 26.4667 86.4019 25.56V20.72C85.6819 20.6667 84.9485 20.64 84.2019 20.64C83.4819 20.64 82.7619 20.68 82.0419 20.76C80.0152 21 78.6952 21.4533 78.0819 22.12C77.4685 22.7867 77.1619 23.7067 77.1619 24.88C77.1619 25.0933 77.1752 25.3333 77.2019 25.6C77.4419 28.4267 78.6285 29.84 80.7619 29.84ZM102.123 11.72V10.88C100.923 11.36 99.8295 12.3333 98.8428 13.8C97.8561 15.24 97.3361 16.6 97.2828 17.88V30H94.4828V10H97.2828V16.36C97.7095 14.8133 98.5228 13.36 99.7228 12C100.923 10.6133 102.283 9.89333 103.803 9.84H103.963C104.496 9.84 104.936 10.0267 105.283 10.4C105.656 10.7467 105.843 11.1867 105.843 11.72C105.843 12.2533 105.656 12.6933 105.283 13.04C104.936 13.3867 104.496 13.56 103.963 13.56C103.429 13.56 102.989 13.3867 102.643 13.04C102.296 12.6933 102.123 12.2533 102.123 11.72ZM110.058 2.32C113.151 2.10666 115.884 2 118.258 2C124.844 2 128.138 4.2 128.138 8.6C128.138 10.2533 127.658 11.68 126.698 12.88C125.738 14.0533 124.204 14.8533 122.098 15.28C124.124 15.52 125.724 16.1333 126.898 17.12C128.071 18.1067 128.658 19.8267 128.658 22.28C128.658 27.4267 125.364 30 118.778 30H110.058V2.32ZM113.378 29.6H118.778C121.151 29.6 122.831 28.9867 123.818 27.76C124.831 26.5067 125.338 24.6 125.338 22.04C125.338 19.48 124.831 17.7733 123.818 16.92C122.804 16.0667 121.298 15.6133 119.298 15.56H113.378V29.6ZM118.258 2.4C116.711 2.4 115.084 2.49333 113.378 2.68V15.16H119.298C123.058 15 124.938 12.84 124.938 8.68C124.938 6.65333 124.378 5.10667 123.258 4.04C122.138 2.94666 120.471 2.4 118.258 2.4ZM148.19 30C146.377 30 145.137 29.6533 144.47 28.96C143.857 28.3733 143.55 27.8667 143.55 27.44V26.6C142.244 28.9733 140.15 30.16 137.27 30.16C133.91 30.16 132.004 28.64 131.55 25.6C131.497 25.28 131.47 24.96 131.47 24.64C131.47 24.2933 131.524 23.92 131.63 23.52C131.737 23.12 132.044 22.68 132.55 22.2C133.564 21.24 135.79 20.6533 139.23 20.44C140.084 20.36 140.87 20.32 141.59 20.32C142.31 20.32 142.964 20.3467 143.55 20.4V13.76C143.497 13.7333 143.497 13.6133 143.55 13.4C143.604 13.16 143.55 12.8667 143.39 12.52C143.257 12.1467 143.07 11.7867 142.83 11.44C142.59 11.0933 142.164 10.8 141.55 10.56C140.937 10.2933 140.137 10.16 139.15 10.16C138.164 10.16 137.004 10.3467 135.67 10.72C134.364 11.0667 133.404 11.4133 132.79 11.76L132.63 11.48C135.004 10.3867 137.417 9.84 139.87 9.84C142.617 9.84 144.43 10.3333 145.31 11.32C146.004 12.0933 146.35 12.9067 146.35 13.76V27.16C146.35 27.9333 146.497 28.5333 146.79 28.96C147.11 29.36 147.43 29.5733 147.75 29.6L148.19 29.68H149.43V30H148.19ZM137.91 29.84C139.324 29.84 140.59 29.36 141.71 28.4C142.857 27.4133 143.47 26.4667 143.55 25.56V20.72C142.83 20.6667 142.097 20.64 141.35 20.64C140.63 20.64 139.91 20.68 139.19 20.76C137.164 21 135.844 21.4533 135.23 22.12C134.617 22.7867 134.31 23.7067 134.31 24.88C134.31 25.0933 134.324 25.3333 134.35 25.6C134.59 28.4267 135.777 29.84 137.91 29.84ZM151.631 0.0399995H154.431V14.96C154.885 13.7333 155.725 12.5733 156.951 11.48C158.178 10.3867 159.565 9.84 161.111 9.84C166.525 9.84 169.231 13.0133 169.231 19.36C169.231 26.56 165.738 30.16 158.751 30.16C156.698 30.16 154.325 29.8267 151.631 29.16V0.0399995ZM161.071 10.16C159.418 10.16 157.925 10.88 156.591 12.32C155.258 13.7333 154.538 15.0133 154.431 16.16V28.92C156.058 29.5333 157.485 29.84 158.711 29.84C163.858 29.84 166.431 26.3333 166.431 19.32C166.431 13.2133 164.645 10.16 161.071 10.16ZM188.933 30C187.119 30 185.879 29.6533 185.213 28.96C184.599 28.3733 184.293 27.8667 184.293 27.44V26.6C182.986 28.9733 180.893 30.16 178.013 30.16C174.653 30.16 172.746 28.64 172.293 25.6C172.239 25.28 172.213 24.96 172.213 24.64C172.213 24.2933 172.266 23.92 172.373 23.52C172.479 23.12 172.786 22.68 173.293 22.2C174.306 21.24 176.533 20.6533 179.973 20.44C180.826 20.36 181.613 20.32 182.333 20.32C183.053 20.32 183.706 20.3467 184.293 20.4V13.76C184.239 13.7333 184.239 13.6133 184.293 13.4C184.346 13.16 184.293 12.8667 184.133 12.52C183.999 12.1467 183.813 11.7867 183.573 11.44C183.333 11.0933 182.906 10.8 182.293 10.56C181.679 10.2933 180.879 10.16 179.893 10.16C178.906 10.16 177.746 10.3467 176.413 10.72C175.106 11.0667 174.146 11.4133 173.533 11.76L173.373 11.48C175.746 10.3867 178.159 9.84 180.613 9.84C183.359 9.84 185.173 10.3333 186.053 11.32C186.746 12.0933 187.093 12.9067 187.093 13.76V27.16C187.093 27.9333 187.239 28.5333 187.533 28.96C187.853 29.36 188.173 29.5733 188.493 29.6L188.933 29.68H190.173V30H188.933ZM178.653 29.84C180.066 29.84 181.333 29.36 182.453 28.4C183.599 27.4133 184.213 26.4667 184.293 25.56V20.72C183.573 20.6667 182.839 20.64 182.093 20.64C181.373 20.64 180.653 20.68 179.933 20.76C177.906 21 176.586 21.4533 175.973 22.12C175.359 22.7867 175.053 23.7067 175.053 24.88C175.053 25.0933 175.066 25.3333 175.093 25.6C175.333 28.4267 176.519 29.84 178.653 29.84ZM205.188 30H204.708L216.668 2L217.108 1.8L227.188 30H223.788L220.668 21.2H208.988L205.188 30ZM215.428 6.32L209.148 20.8H220.548L215.428 6.32ZM230 10H232.8V14.96C233.253 13.7333 234.093 12.5733 235.32 11.48C236.547 10.3867 237.933 9.84 239.48 9.84C244.893 9.84 247.6 13.0133 247.6 19.36C247.6 26.56 244.107 30.16 237.12 30.16C235.867 30.16 234.427 29.8667 232.8 29.28V40H230V10ZM239.44 10.16C237.787 10.16 236.293 10.88 234.96 12.32C233.627 13.7333 232.907 15.0133 232.8 16.16V28.92C234.427 29.5333 235.853 29.84 237.08 29.84C242.227 29.84 244.8 26.3333 244.8 19.32C244.8 13.2133 243.013 10.16 239.44 10.16ZM251.211 10H254.011V14.96C254.464 13.7333 255.304 12.5733 256.531 11.48C257.758 10.3867 259.144 9.84 260.691 9.84C266.104 9.84 268.811 13.0133 268.811 19.36C268.811 26.56 265.318 30.16 258.331 30.16C257.078 30.16 255.638 29.8667 254.011 29.28V40H251.211V10ZM260.651 10.16C258.998 10.16 257.504 10.88 256.171 12.32C254.838 13.7333 254.118 15.0133 254.011 16.16V28.92C255.638 29.5333 257.064 29.84 258.291 29.84C263.438 29.84 266.011 26.3333 266.011 19.32C266.011 13.2133 264.224 10.16 260.651 10.16ZM277.102 30C274.755 30 273.275 29.3867 272.662 28.16C272.529 27.8933 272.462 27.6533 272.462 27.44V0.0399995H275.262V27.16C275.262 27.9333 275.409 28.5333 275.702 28.96C276.022 29.36 276.342 29.5733 276.662 29.6L277.102 29.68H278.342V30H277.102ZM284.657 30C283.563 30 282.723 29.76 282.137 29.28C281.577 28.8 281.283 28.32 281.257 27.84L281.217 27.16V10H284.017V27.16C284.017 27.9333 284.163 28.5333 284.457 28.96C284.777 29.36 285.083 29.5733 285.377 29.6L285.857 29.68H287.097V30H284.657ZM281.457 5.52C281.137 5.2 280.977 4.8 280.977 4.32C280.977 3.84 281.137 3.44 281.457 3.12C281.777 2.77333 282.177 2.6 282.657 2.6C283.137 2.6 283.537 2.77333 283.857 3.12C284.203 3.44 284.377 3.84 284.377 4.32C284.377 4.8 284.203 5.2 283.857 5.52C283.537 5.84 283.137 6 282.657 6C282.177 6 281.777 5.84 281.457 5.52ZM297.671 10.16C295.778 10.16 294.191 11.0667 292.911 12.88C291.658 14.6933 291.031 17.2 291.031 20.4C291.031 23.6 291.604 25.9733 292.751 27.52C293.924 29.0667 295.458 29.84 297.351 29.84C299.724 29.84 301.831 29.44 303.671 28.64L303.791 28.92C301.898 29.7467 299.684 30.16 297.151 30.16C294.618 30.16 292.511 29.36 290.831 27.76C289.151 26.16 288.311 23.6933 288.311 20.36C288.311 17.0267 289.191 14.44 290.951 12.6C292.711 10.76 294.951 9.84 297.671 9.84C299.191 9.84 300.591 10.1867 301.871 10.88C303.178 11.5733 304.138 12.6267 304.751 14.04H302.191C301.791 12.7333 301.178 11.76 300.351 11.12C299.551 10.48 298.658 10.16 297.671 10.16ZM323.698 30C321.885 30 320.645 29.6533 319.978 28.96C319.365 28.3733 319.058 27.8667 319.058 27.44V26.6C317.751 28.9733 315.658 30.16 312.778 30.16C309.418 30.16 307.511 28.64 307.058 25.6C307.005 25.28 306.978 24.96 306.978 24.64C306.978 24.2933 307.031 23.92 307.138 23.52C307.245 23.12 307.551 22.68 308.058 22.2C309.071 21.24 311.298 20.6533 314.738 20.44C315.591 20.36 316.378 20.32 317.098 20.32C317.818 20.32 318.471 20.3467 319.058 20.4V13.76C319.005 13.7333 319.005 13.6133 319.058 13.4C319.111 13.16 319.058 12.8667 318.898 12.52C318.765 12.1467 318.578 11.7867 318.338 11.44C318.098 11.0933 317.671 10.8 317.058 10.56C316.445 10.2933 315.645 10.16 314.658 10.16C313.671 10.16 312.511 10.3467 311.178 10.72C309.871 11.0667 308.911 11.4133 308.298 11.76L308.138 11.48C310.511 10.3867 312.925 9.84 315.378 9.84C318.125 9.84 319.938 10.3333 320.818 11.32C321.511 12.0933 321.858 12.9067 321.858 13.76V27.16C321.858 27.9333 322.005 28.5333 322.298 28.96C322.618 29.36 322.938 29.5733 323.258 29.6L323.698 29.68H324.938V30H323.698ZM313.418 29.84C314.831 29.84 316.098 29.36 317.218 28.4C318.365 27.4133 318.978 26.4667 319.058 25.56V20.72C318.338 20.6667 317.605 20.64 316.858 20.64C316.138 20.64 315.418 20.68 314.698 20.76C312.671 21 311.351 21.4533 310.738 22.12C310.125 22.7867 309.818 23.7067 309.818 24.88C309.818 25.0933 309.831 25.3333 309.858 25.6C310.098 28.4267 311.285 29.84 313.418 29.84ZM327.72 10.32V10H328.56V6H331.36V10H337.48V10.32H331.36V24.88C331.36 26.6133 331.547 27.8667 331.92 28.64C332.32 29.4133 333.134 29.8 334.36 29.8C335.614 29.8 336.88 29.5467 338.16 29.04L338.28 29.36C336.947 29.8667 335.414 30.12 333.68 30.12C331.974 30.12 330.694 29.7733 329.84 29.08C328.987 28.36 328.56 26.9467 328.56 24.84V10.32H327.72ZM344.149 30C343.055 30 342.215 29.76 341.629 29.28C341.069 28.8 340.775 28.32 340.749 27.84L340.709 27.16V10H343.509V27.16C343.509 27.9333 343.655 28.5333 343.949 28.96C344.269 29.36 344.575 29.5733 344.869 29.6L345.349 29.68H346.589V30H344.149ZM340.949 5.52C340.629 5.2 340.469 4.8 340.469 4.32C340.469 3.84 340.629 3.44 340.949 3.12C341.269 2.77333 341.669 2.6 342.149 2.6C342.629 2.6 343.029 2.77333 343.349 3.12C343.695 3.44 343.869 3.84 343.869 4.32C343.869 4.8 343.695 5.2 343.349 5.52C343.029 5.84 342.629 6 342.149 6C341.669 6 341.269 5.84 340.949 5.52ZM357.283 30.16C354.483 30.16 352.203 29.36 350.443 27.76C348.683 26.16 347.803 23.6933 347.803 20.36C347.803 17.0267 348.71 14.44 350.523 12.6C352.363 10.76 354.683 9.84 357.483 9.84C360.31 9.84 362.603 10.64 364.363 12.24C366.123 13.84 367.003 16.3067 367.003 19.64C367.003 22.9733 366.083 25.56 364.243 27.4C362.43 29.24 360.11 30.16 357.283 30.16ZM357.563 10.16C355.536 10.16 353.856 11.0667 352.523 12.88C351.19 14.6667 350.523 17.1733 350.523 20.4C350.523 23.6 351.136 25.9733 352.363 27.52C353.59 29.0667 355.216 29.84 357.243 29.84C359.27 29.84 360.95 28.9467 362.283 27.16C363.616 25.3467 364.283 22.84 364.283 19.64C364.283 16.4133 363.67 14.0267 362.443 12.48C361.216 10.9333 359.59 10.16 357.563 10.16ZM386.005 30C384.911 30 384.071 29.76 383.485 29.28C382.925 28.8 382.631 28.32 382.605 27.84L382.565 27.16V14.6C382.565 12.4933 382.018 11.1467 380.925 10.56C380.365 10.2933 379.671 10.16 378.845 10.16C377.138 10.16 375.605 10.84 374.245 12.2C372.885 13.5333 372.205 14.7333 372.205 15.8V30H369.405V10H372.205V14.56C372.658 13.4133 373.498 12.3467 374.725 11.36C375.951 10.3467 377.298 9.84 378.765 9.84C380.231 9.84 381.418 9.98667 382.325 10.28C383.258 10.5467 383.938 10.9333 384.365 11.44C385.031 12.2667 385.365 13.3333 385.365 14.64V27.16C385.365 27.9333 385.511 28.5333 385.805 28.96C386.125 29.36 386.445 29.5733 386.765 29.6L387.205 29.68H388.445V30H386.005Z" fill="url(#paint0_linear_246_9)"/>
<defs>
<linearGradient id="paint0_linear_246_9" x1="41" y1="-6.99997" x2="350" y2="30" gradientUnits="userSpaceOnUse">
<stop stop-color="#50ACFF"/>
<stop offset="1" stop-color="#27AE60"/>
</linearGradient>
</defs>
</svg>
